<svg width="23" height="17" viewBox="0 0 23 17" fill="none" xmlns="http://www.w3.org/2000/svg">
<path d="M15.1651 1.25C13.433 0.25 10.3333 4.6188 9 6.9282C7.66667 9.2376 5.43301 14.1064 7.16506 15.1064" stroke="url(#paint0_linear_5_119)" stroke-width="0.5"/>
<path fill-rule="evenodd" clip-rule="evenodd" d="M12.2559 12H13.5014C13.4374 11.856 13.3974 11.712 13.3814 11.568C13.3654 11.416 13.3574 11.22 13.3574 10.98V10.3551C13.0394 10.8677 12.6649 11.4339 12.2559 12ZM13.2428 8.55739C13.2173 8.47064 13.1875 8.39018 13.1534 8.316C13.0254 8.02 12.8014 7.824 12.4814 7.728V7.704C13.0574 7.472 13.3454 6.92 13.3454 6.048V5.532C13.3454 4.876 13.1894 4.392 12.8774 4.08C12.5654 3.76 12.0694 3.6 11.3894 3.6H9.43341V12H10.7534V8.4H11.2094C11.5134 8.4 11.7254 8.476 11.8454 8.628C11.9734 8.78 12.0374 9.048 12.0374 9.432V10.5597C12.3677 10.0629 12.6605 9.58811 12.8971 9.1782C13.0072 8.98754 13.1234 8.77934 13.2428 8.55739ZM14.2732 8.74902V12H16.2893C16.9453 12 17.4373 11.824 17.7653 11.472C18.0933 11.12 18.2573 10.604 18.2573 9.924V5.676C18.2573 4.996 18.0933 4.48 17.7653 4.128C17.4373 3.776 16.9453 3.6 16.2893 3.6L16.2168 3.6C16.1529 3.98817 16.0546 4.39287 15.9343 4.8H16.2653C16.4812 4.8 16.6452 4.864 16.7573 4.992C16.8772 5.12 16.9373 5.328 16.9373 5.616V9.984C16.9373 10.272 16.8772 10.48 16.7573 10.608C16.6452 10.736 16.4812 10.8 16.2653 10.8H15.5933V5.81836C15.2122 6.84667 14.7269 7.88251 14.2732 8.74902ZM15.2013 3.6C15.1366 3.94082 15.0411 4.31032 14.9198 4.69923C14.7436 5.26436 14.519 5.85195 14.2732 6.42565V3.6L15.2013 3.6ZM1.476 3.6H0.144L1.416 12H3.168L4.44 3.6H3.228L2.364 10.116H2.34L1.476 3.6ZM8.67403 3.6H5.07403V12H8.67403V10.8H6.39403V8.22H8.20603V7.02H6.39403V4.8H8.67403V3.6ZM11.8214 6.996C11.6934 7.132 11.4974 7.2 11.2334 7.2H10.7534V4.8H11.3534C11.5854 4.8 11.7534 4.868 11.8574 5.004C11.9694 5.14 12.0254 5.36 12.0254 5.664V6.312C12.0254 6.632 11.9574 6.86 11.8214 6.996ZM22.7482 3.6H19.1482V12H22.7482V10.8H20.4682V8.22H22.2802V7.02H20.4682V4.8H22.7482V3.6Z" fill="url(#paint1_linear_5_119)"/>
<path d="M7.16507 15.1064C8.89712 16.1064 11.9968 11.7376 13.3301 9.4282C14.6635 7.1188 16.8971 2.25 15.1651 1.25" stroke="#3A8543" stroke-width="0.5"/>
<defs>
<linearGradient id="paint0_linear_5_119" x1="11.1651" y1="8.1782" x2="9" y2="6.9282" gradientUnits="userSpaceOnUse">
<stop stop-color="#3A8543"/>
<stop offset="1" stop-color="#295F30"/>
</linearGradient>
<linearGradient id="paint1_linear_5_119" x1="22" y1="1" x2="22" y2="13" gradientUnits="userSpaceOnUse">
<stop stop-color="#4EBA4C"/>
<stop offset="1" stop-color="#3A8543"/>
</linearGradient>
</defs>
</svg>
